<svg xmlns="http://www.w3.org/2000/svg" width="128" height="128" viewBox="0 0 128 128" shape-rendering="crispEdges">
<rect x="16" y="14" width="10" height="10" fill="#ffe8a6" />
<rect x="24" y="16" width="6" height="2" fill="#ffe8a6" />
<rect x="14" y="12" width="8" height="8" fill="#ffbf57" />
<rect x="26" y="16" width="6" height="2" fill="#ffbf57" />
<rect x="12" y="10" width="6" height="6" fill="#ff6e52" />
<rect x="28" y="16" width="6" height="2" fill="#ff6e52" />
<rect x="16" y="48" width="2" height="2" fill="#fff6dc" />
<rect x="16" y="48" width="2" height="2" fill="#fff6dc" />
<rect x="16" y="48" width="2" height="2" fill="#fff6dc" />
<rect x="16" y="48" width="2" height="2" fill="#fff6dc" />
<rect x="16" y="48" width="2" height="2" fill="#ffbf57" />
<rect x="14" y="46" width="2" height="2" fill="#ffbf57" />
<rect x="18" y="50" width="2" height="2" fill="#ffbf57" />
<rect x="18" y="46" width="2" height="2" fill="#ffbf57" />
<rect x="16" y="48" width="2" height="2" fill="#79c9ff" />
<rect x="12" y="44" width="2" height="2" fill="#79c9ff" />
<rect x="20" y="52" width="2" height="2" fill="#79c9ff" />
<rect x="20" y="44" width="2" height="2" fill="#79c9ff" />
<rect x="48" y="14" width="10" height="10" fill="#ffe8a6" />
<rect x="58" y="16" width="6" height="2" fill="#ffe8a6" />
<rect x="46" y="12" width="8" height="8" fill="#ffbf57" />
<rect x="60" y="16" width="6" height="2" fill="#ffbf57" />
<rect x="44" y="10" width="6" height="6" fill="#ff6e52" />
<rect x="62" y="16" width="6" height="2" fill="#ff6e52" />
<rect x="48" y="48" width="4" height="2" fill="#fff6dc" />
<rect x="48" y="48" width="2" height="2" fill="#fff6dc" />
<rect x="48" y="48" width="2" height="2" fill="#fff6dc" />
<rect x="48" y="48" width="2" height="2" fill="#fff6dc" />
<rect x="48" y="48" width="4" height="2" fill="#ffbf57" />
<rect x="46" y="46" width="2" height="2" fill="#ffbf57" />
<rect x="50" y="50" width="2" height="2" fill="#ffbf57" />
<rect x="50" y="46" width="2" height="2" fill="#ffbf57" />
<rect x="48" y="48" width="4" height="2" fill="#79c9ff" />
<rect x="44" y="44" width="2" height="2" fill="#79c9ff" />
<rect x="52" y="52" width="2" height="2" fill="#79c9ff" />
<rect x="52" y="44" width="2" height="2" fill="#79c9ff" />
<rect x="80" y="14" width="10" height="10" fill="#ffe8a6" />
<rect x="92" y="16" width="6" height="2" fill="#ffe8a6" />
<rect x="78" y="12" width="8" height="8" fill="#ffbf57" />
<rect x="94" y="16" width="6" height="2" fill="#ffbf57" />
<rect x="76" y="10" width="6" height="6" fill="#ff6e52" />
<rect x="96" y="16" width="6" height="2" fill="#ff6e52" />
<rect x="80" y="48" width="6" height="2" fill="#fff6dc" />
<rect x="80" y="48" width="2" height="2" fill="#fff6dc" />
<rect x="80" y="48" width="2" height="2" fill="#fff6dc" />
<rect x="80" y="48" width="2" height="2" fill="#fff6dc" />
<rect x="80" y="48" width="6" height="2" fill="#ffbf57" />
<rect x="78" y="46" width="2" height="2" fill="#ffbf57" />
<rect x="82" y="50" width="2" height="2" fill="#ffbf57" />
<rect x="82" y="46" width="2" height="2" fill="#ffbf57" />
<rect x="80" y="48" width="6" height="2" fill="#79c9ff" />
<rect x="76" y="44" width="2" height="2" fill="#79c9ff" />
<rect x="84" y="52" width="2" height="2" fill="#79c9ff" />
<rect x="84" y="44" width="2" height="2" fill="#79c9ff" />
<rect x="12" y="76" width="10" height="10" fill="#fff6dc" />
<rect x="16" y="80" width="6" height="6" fill="#ffbf57" />
<rect x="18" y="82" width="2" height="2" fill="#ff6e52" />
<rect x="14" y="110" width="8" height="14" fill="#ff6e52" />
<rect x="16" y="110" width="4" height="10" fill="#ffbf57" />
<rect x="16" y="110" width="2" height="6" fill="#fff6dc" />
<rect x="42" y="74" width="14" height="14" fill="#fff6dc" />
<rect x="46" y="78" width="10" height="10" fill="#ffd880" />
<rect x="50" y="82" width="6" height="6" fill="#ff9c52" />
<rect x="46" y="108" width="8" height="18" fill="#ff6e52" />
<rect x="48" y="108" width="4" height="14" fill="#ffbf57" />
<rect x="48" y="110" width="2" height="10" fill="#fff6dc" />
<rect x="72" y="72" width="18" height="18" fill="#ffe8a6" />
<rect x="76" y="76" width="14" height="14" fill="#ffbf57" />
<rect x="80" y="80" width="10" height="10" fill="#ff6e52" />
<rect x="78" y="108" width="8" height="16" fill="#ff6e52" />
<rect x="80" y="110" width="4" height="12" fill="#ffbf57" />
<rect x="80" y="110" width="2" height="8" fill="#fff6dc" />
<rect x="102" y="70" width="22" height="22" fill="#ffd880" />
<rect x="108" y="76" width="18" height="18" fill="#ff9c52" />
<rect x="112" y="80" width="14" height="14" fill="#d75a38" />
<rect x="110" y="110" width="8" height="12" fill="#ff6e52" />
<rect x="112" y="110" width="4" height="8" fill="#ffbf57" />
<rect x="112" y="110" width="2" height="4" fill="#fff6dc" />
</svg>