<svg xmlns="http://www.w3.org/2000/svg" width="640" height="180" viewBox="0 0 640 180">
<defs>
<linearGradient id="skyBlue" x1="0" y1="0" x2="0" y2="1"><stop offset="0%" stop-color="#b8e7ff"/><stop offset="100%" stop-color="#4b82b1"/></linearGradient>
<linearGradient id="steel" x1="0" y1="0" x2="1" y2="1"><stop offset="0%" stop-color="#7e8ea2"/><stop offset="100%" stop-color="#304055"/></linearGradient>
<linearGradient id="armorOlive" x1="0" y1="0" x2="0" y2="1"><stop offset="0%" stop-color="#6b8f79"/><stop offset="100%" stop-color="#2e473a"/></linearGradient>
<linearGradient id="armorBrown" x1="0" y1="0" x2="0" y2="1"><stop offset="0%" stop-color="#8a5f53"/><stop offset="100%" stop-color="#4c2f29"/></linearGradient>
<linearGradient id="armorBlue" x1="0" y1="0" x2="0" y2="1"><stop offset="0%" stop-color="#6fc8ff"/><stop offset="100%" stop-color="#234f74"/></linearGradient>
<radialGradient id="blast" cx="50%" cy="50%" r="50%"><stop offset="0%" stop-color="#fff7d6"/><stop offset="45%" stop-color="#ffb15e"/><stop offset="100%" stop-color="#d8563e"/></radialGradient>
</defs>
<path d="M 24 126 Q 92 92 158 101 L 230 108 L 266 90 L 304 98 L 304 124 L 218 134 L 130 147 L 58 156 Z" fill="#2b3948" />
<rect x="144" y="96" width="112" height="18" rx="7" fill="#5f6d7d" />
<rect x="182" y="80" width="36" height="18" rx="5" fill="#101923" />
<rect x="94" y="112" width="36" height="46" rx="8" fill="#1b2733" />
<rect x="74" y="126" width="26" height="22" rx="7" fill="#d39a67" />
<path d="M 340 128 Q 396 90 468 102 L 540 106 L 606 112 L 606 132 L 534 140 L 468 152 L 390 160 Z" fill="#203342" />
<rect x="450" y="96" width="98" height="16" rx="6" fill="#4e6880" />
<rect x="508" y="114" width="22" height="40" rx="7" fill="#121c26" />
<rect x="412" y="122" width="28" height="32" rx="7" fill="#101923" />
<rect x="380" y="130" width="24" height="18" rx="6" fill="#cb8f61" />
</svg>