<svg xmlns="http://www.w3.org/2000/svg" width="384" height="384" viewBox="0 0 384 384">
<defs>
<linearGradient id="skyBlue" x1="0" y1="0" x2="0" y2="1"><stop offset="0%" stop-color="#b8e7ff"/><stop offset="100%" stop-color="#4b82b1"/></linearGradient>
<linearGradient id="steel" x1="0" y1="0" x2="1" y2="1"><stop offset="0%" stop-color="#7e8ea2"/><stop offset="100%" stop-color="#304055"/></linearGradient>
<linearGradient id="armorOlive" x1="0" y1="0" x2="0" y2="1"><stop offset="0%" stop-color="#6b8f79"/><stop offset="100%" stop-color="#2e473a"/></linearGradient>
<linearGradient id="armorBrown" x1="0" y1="0" x2="0" y2="1"><stop offset="0%" stop-color="#8a5f53"/><stop offset="100%" stop-color="#4c2f29"/></linearGradient>
<linearGradient id="armorBlue" x1="0" y1="0" x2="0" y2="1"><stop offset="0%" stop-color="#6fc8ff"/><stop offset="100%" stop-color="#234f74"/></linearGradient>
<radialGradient id="blast" cx="50%" cy="50%" r="50%"><stop offset="0%" stop-color="#fff7d6"/><stop offset="45%" stop-color="#ffb15e"/><stop offset="100%" stop-color="#d8563e"/></radialGradient>
</defs>
<ellipse cx="48" cy="82" rx="18" ry="6" fill="rgba(0,0,0,0.22)" />
<path d="M 30 72 Q 48 20 66 72" fill="url(#armorOlive)" />
<circle cx="48" cy="24" r="12" fill="#f1c8a4" />
<path d="M 36 22 Q 48 8 60 22 L 58 30 Q 48 20 38 30 Z" fill="#223629" />
<rect x="36" y="36" width="24" height="24" rx="10" fill="url(#armorOlive)" />
<rect x="56" y="40" width="18" height="7" rx="3" fill="#4fd1ff" />
<rect x="70" y="42" width="10" height="3" rx="1" fill="#232d39" />
<rect x="40" y="60" width="10" height="22" rx="4" fill="#223629" />
<rect x="50" y="60" width="10" height="22" rx="4" fill="#223629" />
<rect x="38" y="80" width="12" height="4" rx="2" fill="#202733" />
<rect x="50" y="80" width="12" height="4" rx="2" fill="#202733" />
<ellipse cx="48" cy="178" rx="18" ry="6" fill="rgba(0,0,0,0.22)" />
<path d="M 30 168 Q 48 116 66 168" fill="url(#armorBrown)" />
<circle cx="48" cy="120" r="12" fill="#f1c8a4" />
<path d="M 36 118 Q 48 104 60 118 L 58 126 Q 48 116 38 126 Z" fill="#37211e" />
<rect x="36" y="132" width="24" height="24" rx="10" fill="url(#armorBrown)" />
<rect x="56" y="136" width="18" height="7" rx="3" fill="#ffd06d" />
<rect x="70" y="138" width="10" height="3" rx="1" fill="#232d39" />
<rect x="40" y="156" width="10" height="22" rx="4" fill="#37211e" />
<rect x="50" y="156" width="10" height="22" rx="4" fill="#37211e" />
<rect x="38" y="176" width="12" height="4" rx="2" fill="#202733" />
<rect x="50" y="176" width="12" height="4" rx="2" fill="#202733" />
<ellipse cx="48" cy="274" rx="18" ry="6" fill="rgba(0,0,0,0.22)" />
<path d="M 30 264 Q 48 212 66 264" fill="url(#armorBlue)" />
<circle cx="48" cy="216" r="12" fill="#f1c8a4" />
<path d="M 36 214 Q 48 200 60 214 L 58 222 Q 48 212 38 222 Z" fill="#18384f" />
<rect x="36" y="228" width="24" height="24" rx="10" fill="url(#armorBlue)" />
<rect x="56" y="232" width="18" height="7" rx="3" fill="#d2f6ff" />
<rect x="70" y="234" width="10" height="3" rx="1" fill="#232d39" />
<rect x="40" y="252" width="10" height="22" rx="4" fill="#18384f" />
<rect x="50" y="252" width="10" height="22" rx="4" fill="#18384f" />
<rect x="38" y="272" width="12" height="4" rx="2" fill="#202733" />
<rect x="50" y="272" width="12" height="4" rx="2" fill="#202733" />
<ellipse cx="144" cy="82" rx="18" ry="6" fill="rgba(0,0,0,0.22)" />
<path d="M 126 72 Q 144 20 162 72" fill="url(#armorOlive)" />
<circle cx="144" cy="24" r="12" fill="#f1c8a4" />
<path d="M 132 22 Q 144 8 156 22 L 154 30 Q 144 20 134 30 Z" fill="#223629" />
<rect x="131" y="36" width="24" height="24" rx="10" fill="url(#armorOlive)" />
<rect x="152" y="42" width="18" height="7" rx="3" fill="#4fd1ff" />
<rect x="166" y="44" width="10" height="3" rx="1" fill="#232d39" />
<rect x="134" y="60" width="10" height="22" rx="4" fill="#223629" />
<rect x="148" y="60" width="10" height="22" rx="4" fill="#223629" />
<rect x="132" y="80" width="12" height="4" rx="2" fill="#202733" />
<rect x="148" y="80" width="12" height="4" rx="2" fill="#202733" />
<ellipse cx="144" cy="178" rx="18" ry="6" fill="rgba(0,0,0,0.22)" />
<path d="M 126 168 Q 144 116 162 168" fill="url(#armorBrown)" />
<circle cx="144" cy="120" r="12" fill="#f1c8a4" />
<path d="M 132 118 Q 144 104 156 118 L 154 126 Q 144 116 134 126 Z" fill="#37211e" />
<rect x="131" y="132" width="24" height="24" rx="10" fill="url(#armorBrown)" />
<rect x="152" y="138" width="18" height="7" rx="3" fill="#ffd06d" />
<rect x="166" y="140" width="10" height="3" rx="1" fill="#232d39" />
<rect x="134" y="156" width="10" height="22" rx="4" fill="#37211e" />
<rect x="148" y="156" width="10" height="22" rx="4" fill="#37211e" />
<rect x="132" y="176" width="12" height="4" rx="2" fill="#202733" />
<rect x="148" y="176" width="12" height="4" rx="2" fill="#202733" />
<ellipse cx="144" cy="274" rx="18" ry="6" fill="rgba(0,0,0,0.22)" />
<path d="M 126 264 Q 144 212 162 264" fill="url(#armorBlue)" />
<circle cx="144" cy="216" r="12" fill="#f1c8a4" />
<path d="M 132 214 Q 144 200 156 214 L 154 222 Q 144 212 134 222 Z" fill="#18384f" />
<rect x="131" y="228" width="24" height="24" rx="10" fill="url(#armorBlue)" />
<rect x="152" y="234" width="18" height="7" rx="3" fill="#d2f6ff" />
<rect x="166" y="236" width="10" height="3" rx="1" fill="#232d39" />
<rect x="134" y="252" width="10" height="22" rx="4" fill="#18384f" />
<rect x="148" y="252" width="10" height="22" rx="4" fill="#18384f" />
<rect x="132" y="272" width="12" height="4" rx="2" fill="#202733" />
<rect x="148" y="272" width="12" height="4" rx="2" fill="#202733" />
<ellipse cx="240" cy="82" rx="18" ry="6" fill="rgba(0,0,0,0.22)" />
<path d="M 222 72 Q 240 20 258 72" fill="url(#armorOlive)" />
<circle cx="240" cy="24" r="12" fill="#f1c8a4" />
<path d="M 228 22 Q 240 8 252 22 L 250 30 Q 240 20 230 30 Z" fill="#223629" />
<rect x="229" y="36" width="24" height="24" rx="10" fill="url(#armorOlive)" />
<rect x="248" y="40" width="18" height="7" rx="3" fill="#4fd1ff" />
<rect x="262" y="42" width="10" height="3" rx="1" fill="#232d39" />
<rect x="232" y="60" width="10" height="22" rx="4" fill="#223629" />
<rect x="242" y="60" width="10" height="22" rx="4" fill="#223629" />
<rect x="230" y="80" width="12" height="4" rx="2" fill="#202733" />
<rect x="242" y="80" width="12" height="4" rx="2" fill="#202733" />
<ellipse cx="240" cy="178" rx="18" ry="6" fill="rgba(0,0,0,0.22)" />
<path d="M 222 168 Q 240 116 258 168" fill="url(#armorBrown)" />
<circle cx="240" cy="120" r="12" fill="#f1c8a4" />
<path d="M 228 118 Q 240 104 252 118 L 250 126 Q 240 116 230 126 Z" fill="#37211e" />
<rect x="229" y="132" width="24" height="24" rx="10" fill="url(#armorBrown)" />
<rect x="248" y="136" width="18" height="7" rx="3" fill="#ffd06d" />
<rect x="262" y="138" width="10" height="3" rx="1" fill="#232d39" />
<rect x="232" y="156" width="10" height="22" rx="4" fill="#37211e" />
<rect x="242" y="156" width="10" height="22" rx="4" fill="#37211e" />
<rect x="230" y="176" width="12" height="4" rx="2" fill="#202733" />
<rect x="242" y="176" width="12" height="4" rx="2" fill="#202733" />
<ellipse cx="240" cy="274" rx="18" ry="6" fill="rgba(0,0,0,0.22)" />
<path d="M 222 264 Q 240 212 258 264" fill="url(#armorBlue)" />
<circle cx="240" cy="216" r="12" fill="#f1c8a4" />
<path d="M 228 214 Q 240 200 252 214 L 250 222 Q 240 212 230 222 Z" fill="#18384f" />
<rect x="229" y="228" width="24" height="24" rx="10" fill="url(#armorBlue)" />
<rect x="248" y="232" width="18" height="7" rx="3" fill="#d2f6ff" />
<rect x="262" y="234" width="10" height="3" rx="1" fill="#232d39" />
<rect x="232" y="252" width="10" height="22" rx="4" fill="#18384f" />
<rect x="242" y="252" width="10" height="22" rx="4" fill="#18384f" />
<rect x="230" y="272" width="12" height="4" rx="2" fill="#202733" />
<rect x="242" y="272" width="12" height="4" rx="2" fill="#202733" />
<ellipse cx="336" cy="82" rx="18" ry="6" fill="rgba(0,0,0,0.22)" />
<path d="M 318 72 Q 336 20 354 72" fill="url(#armorOlive)" />
<circle cx="336" cy="24" r="12" fill="#f1c8a4" />
<path d="M 324 22 Q 336 8 348 22 L 346 30 Q 336 20 326 30 Z" fill="#223629" />
<rect x="324" y="36" width="24" height="24" rx="10" fill="url(#armorOlive)" />
<rect x="344" y="38" width="18" height="7" rx="3" fill="#4fd1ff" />
<rect x="358" y="40" width="10" height="3" rx="1" fill="#232d39" />
<rect x="330" y="60" width="10" height="22" rx="4" fill="#223629" />
<rect x="336" y="60" width="10" height="22" rx="4" fill="#223629" />
<rect x="328" y="80" width="12" height="4" rx="2" fill="#202733" />
<rect x="336" y="80" width="12" height="4" rx="2" fill="#202733" />
<ellipse cx="336" cy="178" rx="18" ry="6" fill="rgba(0,0,0,0.22)" />
<path d="M 318 168 Q 336 116 354 168" fill="url(#armorBrown)" />
<circle cx="336" cy="120" r="12" fill="#f1c8a4" />
<path d="M 324 118 Q 336 104 348 118 L 346 126 Q 336 116 326 126 Z" fill="#37211e" />
<rect x="324" y="132" width="24" height="24" rx="10" fill="url(#armorBrown)" />
<rect x="344" y="134" width="18" height="7" rx="3" fill="#ffd06d" />
<rect x="358" y="136" width="10" height="3" rx="1" fill="#232d39" />
<rect x="330" y="156" width="10" height="22" rx="4" fill="#37211e" />
<rect x="336" y="156" width="10" height="22" rx="4" fill="#37211e" />
<rect x="328" y="176" width="12" height="4" rx="2" fill="#202733" />
<rect x="336" y="176" width="12" height="4" rx="2" fill="#202733" />
<ellipse cx="336" cy="274" rx="18" ry="6" fill="rgba(0,0,0,0.22)" />
<path d="M 318 264 Q 336 212 354 264" fill="url(#armorBlue)" />
<circle cx="336" cy="216" r="12" fill="#f1c8a4" />
<path d="M 324 214 Q 336 200 348 214 L 346 222 Q 336 212 326 222 Z" fill="#18384f" />
<rect x="324" y="228" width="24" height="24" rx="10" fill="url(#armorBlue)" />
<rect x="344" y="230" width="18" height="7" rx="3" fill="#d2f6ff" />
<rect x="358" y="232" width="10" height="3" rx="1" fill="#232d39" />
<rect x="330" y="252" width="10" height="22" rx="4" fill="#18384f" />
<rect x="336" y="252" width="10" height="22" rx="4" fill="#18384f" />
<rect x="328" y="272" width="12" height="4" rx="2" fill="#202733" />
<rect x="336" y="272" width="12" height="4" rx="2" fill="#202733" />
<ellipse cx="48" cy="370" rx="20" ry="6" fill="rgba(0,0,0,0.14)" />
<rect x="27" y="316" width="42" height="42" rx="12" fill="#355d84" />
<rect x="33" y="322" width="30" height="30" rx="9" fill="#9fe4ff" />
<circle cx="48" cy="337" r="8" fill="#d9f5ff" />
<ellipse cx="144" cy="370" rx="20" ry="6" fill="rgba(0,0,0,0.14)" />
<rect x="123" y="316" width="42" height="42" rx="12" fill="#45685e" />
<rect x="129" y="322" width="30" height="30" rx="9" fill="#73e6b0" />
<circle cx="144" cy="337" r="8" fill="#ebfff6" />
<ellipse cx="240" cy="370" rx="20" ry="6" fill="rgba(0,0,0,0.14)" />
<rect x="219" y="316" width="42" height="42" rx="12" fill="#5f4c2d" />
<rect x="225" y="322" width="30" height="30" rx="9" fill="#ffd26d" />
<circle cx="240" cy="337" r="8" fill="#fff6cd" />
<ellipse cx="336" cy="370" rx="20" ry="6" fill="rgba(0,0,0,0.14)" />
<rect x="315" y="316" width="42" height="42" rx="12" fill="#5c4440" />
<rect x="321" y="322" width="30" height="30" rx="9" fill="#ff8b5d" />
<circle cx="336" cy="337" r="8" fill="#fff0e8" />
</svg>