<svg xmlns="http://www.w3.org/2000/svg" width="384" height="288" viewBox="0 0 384 288">
<defs>
<linearGradient id="skyBlue" x1="0" y1="0" x2="0" y2="1"><stop offset="0%" stop-color="#b8e7ff"/><stop offset="100%" stop-color="#4b82b1"/></linearGradient>
<linearGradient id="steel" x1="0" y1="0" x2="1" y2="1"><stop offset="0%" stop-color="#7e8ea2"/><stop offset="100%" stop-color="#304055"/></linearGradient>
<linearGradient id="armorOlive" x1="0" y1="0" x2="0" y2="1"><stop offset="0%" stop-color="#6b8f79"/><stop offset="100%" stop-color="#2e473a"/></linearGradient>
<linearGradient id="armorBrown" x1="0" y1="0" x2="0" y2="1"><stop offset="0%" stop-color="#8a5f53"/><stop offset="100%" stop-color="#4c2f29"/></linearGradient>
<linearGradient id="armorBlue" x1="0" y1="0" x2="0" y2="1"><stop offset="0%" stop-color="#6fc8ff"/><stop offset="100%" stop-color="#234f74"/></linearGradient>
<radialGradient id="blast" cx="50%" cy="50%" r="50%"><stop offset="0%" stop-color="#fff7d6"/><stop offset="45%" stop-color="#ffb15e"/><stop offset="100%" stop-color="#d8563e"/></radialGradient>
</defs>
<circle cx="48" cy="48" r="14" fill="rgba(255,230,180,0.22)" />
<polygon points="48,18 62,48 48,78 34,48" fill="#fff7d6" />
<polygon points="48,24 58,48 48,72 38,48" fill="#ffba60" />
<circle cx="48" cy="144" r="18" fill="rgba(111,208,255,0.18)" />
<path d="M 24 144 L 72 144 M 48 120 L 48 168 M 30 126 L 66 162 M 66 126 L 30 162" stroke="#d5f3ff" stroke-width="5" stroke-linecap="round" />
<circle cx="48" cy="240" r="24" fill="url(#blast)" />
<circle cx="48" cy="240" r="11.040000000000001" fill="#fff7d6" opacity="0.9" />
<circle cx="144" cy="48" r="18" fill="rgba(255,230,180,0.22)" />
<polygon points="144,18 158,48 144,78 130,48" fill="#fff7d6" />
<polygon points="144,24 154,48 144,72 134,48" fill="#ffba60" />
<circle cx="144" cy="144" r="18" fill="rgba(111,208,255,0.18)" />
<path d="M 120 144 L 168 144 M 144 120 L 144 168 M 126 126 L 162 162 M 162 126 L 126 162" stroke="#d5f3ff" stroke-width="5" stroke-linecap="round" />
<circle cx="144" cy="240" r="30" fill="url(#blast)" />
<circle cx="144" cy="240" r="13.8" fill="#fff7d6" opacity="0.9" />
<circle cx="240" cy="48" r="22" fill="rgba(255,230,180,0.22)" />
<polygon points="240,18 254,48 240,78 226,48" fill="#fff7d6" />
<polygon points="240,24 250,48 240,72 230,48" fill="#ffba60" />
<circle cx="240" cy="144" r="18" fill="rgba(111,208,255,0.18)" />
<path d="M 216 144 L 264 144 M 240 120 L 240 168 M 222 126 L 258 162 M 258 126 L 222 162" stroke="#d5f3ff" stroke-width="5" stroke-linecap="round" />
<circle cx="240" cy="240" r="36" fill="url(#blast)" />
<circle cx="240" cy="240" r="16.560000000000002" fill="#fff7d6" opacity="0.9" />
<circle cx="336" cy="48" r="12" fill="rgba(255,230,180,0.22)" />
<polygon points="336,18 350,48 336,78 322,48" fill="#fff7d6" />
<polygon points="336,24 346,48 336,72 326,48" fill="#ffba60" />
<circle cx="336" cy="144" r="18" fill="rgba(111,208,255,0.18)" />
<path d="M 312 144 L 360 144 M 336 120 L 336 168 M 318 126 L 354 162 M 354 126 L 318 162" stroke="#d5f3ff" stroke-width="5" stroke-linecap="round" />
<circle cx="336" cy="240" r="26" fill="url(#blast)" />
<circle cx="336" cy="240" r="11.96" fill="#fff7d6" opacity="0.9" />
</svg>