<svg xmlns="http://www.w3.org/2000/svg" width="1024" height="96" viewBox="0 0 1024 96" shape-rendering="crispEdges">
  <defs>
    <g id="base">
      <rect x="20" y="8" width="24" height="8" fill="#2f2f3e"/>
      <rect x="16" y="16" width="32" height="8" fill="#46475a"/>
      <rect x="20" y="24" width="24" height="12" fill="#f2cfb6"/>
      <rect x="24" y="28" width="4" height="4" fill="#161826"/>
      <rect x="36" y="28" width="4" height="4" fill="#161826"/>
      <rect x="20" y="36" width="24" height="8" fill="#cc4048"/>
      <rect x="16" y="44" width="32" height="20" fill="#5a7c6a"/>
      <rect x="20" y="48" width="24" height="8" fill="#71957d"/>
      <rect x="12" y="44" width="8" height="20" fill="#5a7c6a"/>
      <rect x="44" y="44" width="8" height="20" fill="#5a7c6a"/>
      <rect x="16" y="64" width="16" height="20" fill="#283149"/>
      <rect x="32" y="64" width="16" height="20" fill="#1d243a"/>
      <rect x="16" y="84" width="16" height="8" fill="#f2cfb6"/>
      <rect x="32" y="84" width="16" height="8" fill="#f2cfb6"/>
      <rect x="12" y="16" width="8" height="4" fill="#d6485f"/>
      <rect x="44" y="16" width="8" height="4" fill="#d6485f"/>
    </g>
    <g id="cassette">
      <rect x="44" y="28" width="8" height="4" fill="#ffffff"/>
      <rect x="40" y="32" width="16" height="12" fill="#6ccff6"/>
      <rect x="44" y="36" width="8" height="4" fill="#ffffff"/>
    </g>
    <g id="vinyl">
      <rect x="44" y="24" width="8" height="4" fill="#f7f7f7"/>
      <rect x="40" y="28" width="16" height="16" fill="#111111"/>
      <rect x="44" y="32" width="8" height="8" fill="#ef476f"/>
    </g>
    <g id="spark">
      <rect x="52" y="16" width="4" height="4" fill="#ffd166"/>
      <rect x="56" y="12" width="4" height="4" fill="#ffd166"/>
      <rect x="56" y="20" width="4" height="4" fill="#ffd166"/>
      <rect x="60" y="16" width="4" height="4" fill="#ffd166"/>
    </g>
  </defs>

  <g transform="translate(0 0)"><use href="#base"/></g>
  <g transform="translate(64 0)"><use href="#base"/><rect x="16" y="68" width="16" height="16" fill="#324055"/><rect x="32" y="64" width="16" height="20" fill="#1d243a"/><rect x="12" y="48" width="8" height="12" fill="#f2cfb6"/></g>
  <g transform="translate(128 0)"><use href="#base"/><rect x="16" y="64" width="16" height="20" fill="#283149"/><rect x="32" y="68" width="16" height="16" fill="#324055"/><rect x="44" y="48" width="8" height="12" fill="#f2cfb6"/></g>
  <g transform="translate(192 0)"><use href="#base"/><rect x="48" y="44" width="12" height="8" fill="#f2cfb6"/><rect x="56" y="40" width="8" height="8" fill="#d6485f"/></g>
  <g transform="translate(256 0)"><use href="#base"/><rect x="44" y="40" width="12" height="12" fill="#f2cfb6"/><use href="#vinyl"/></g>
  <g transform="translate(320 0)"><use href="#base"/><rect x="20" y="24" width="24" height="12" fill="#f0a4ae"/><rect x="12" y="48" width="8" height="12" fill="#f2cfb6"/></g>
  <g transform="translate(384 0)"><use href="#base"/><rect x="12" y="48" width="8" height="16" fill="#f2cfb6"/><rect x="44" y="44" width="8" height="16" fill="#f2cfb6"/><rect x="16" y="68" width="16" height="16" fill="#324055"/></g>
  <g transform="translate(448 0)"><use href="#base"/><rect x="44" y="32" width="12" height="8" fill="#f2cfb6"/><use href="#cassette"/></g>
  <g transform="translate(512 0)"><use href="#base"/><rect x="44" y="20" width="12" height="8" fill="#f2cfb6"/><rect x="40" y="28" width="16" height="12" fill="#6ccff6"/><rect x="44" y="24" width="8" height="4" fill="#ffffff"/><use href="#spark"/></g>
  <g transform="translate(576 0)"><use href="#base"/><rect x="44" y="16" width="16" height="12" fill="#f2cfb6"/><rect x="48" y="24" width="20" height="16" fill="#6ccff6"/><rect x="52" y="28" width="8" height="4" fill="#ffffff"/><use href="#spark"/></g>
  <g transform="translate(640 0)"><use href="#base"/><rect x="36" y="24" width="12" height="8" fill="#f2cfb6"/><rect x="44" y="20" width="24" height="20" fill="#6ccff6"/><rect x="48" y="24" width="8" height="4" fill="#ffffff"/><use href="#spark"/></g>
  <g transform="translate(704 0)"><use href="#base"/><rect x="12" y="28" width="8" height="20" fill="#f2cfb6"/><rect x="20" y="28" width="20" height="4" fill="#f2cfb6"/><rect x="24" y="32" width="16" height="4" fill="#89dceb"/></g>
  <g transform="translate(768 0)"><use href="#base"/><rect x="20" y="56" width="24" height="8" fill="#455c77"/><rect x="24" y="60" width="16" height="8" fill="#f2cfb6"/></g>
  <g transform="translate(832 0)"><use href="#base"/><rect x="44" y="20" width="12" height="8" fill="#f2cfb6"/><rect x="48" y="28" width="12" height="12" fill="#ffffff"/><rect x="52" y="32" width="4" height="4" fill="#ef476f"/><use href="#spark"/></g>
  <g transform="translate(896 0)"><use href="#base"/><rect x="12" y="20" width="8" height="4" fill="#ffd166"/><rect x="44" y="20" width="8" height="4" fill="#ffd166"/><rect x="20" y="4" width="24" height="4" fill="#ffd166"/></g>
  <g transform="translate(960 0)"><use href="#base"/><rect x="12" y="72" width="40" height="8" fill="#283149"/><rect x="16" y="80" width="32" height="8" fill="#1d243a"/><rect x="24" y="84" width="16" height="4" fill="#f2cfb6"/></g>
</svg>
