<svg xmlns="http://www.w3.org/2000/svg" width="128" height="128" viewBox="0 0 128 128" shape-rendering="crispEdges">
<rect x="6" y="24" width="2" height="2" fill="#00000022" />
<rect x="16" y="24" width="2" height="2" fill="#00000022" />
<rect x="26" y="24" width="2" height="2" fill="#00000022" />
<rect x="4" y="26" width="2" height="2" fill="#00000022" />
<rect x="14" y="26" width="2" height="2" fill="#00000022" />
<rect x="24" y="26" width="2" height="2" fill="#00000022" />
<rect x="2" y="28" width="2" height="2" fill="#00000022" />
<rect x="12" y="28" width="2" height="2" fill="#00000022" />
<rect x="22" y="28" width="2" height="2" fill="#00000022" />
<rect x="0" y="30" width="2" height="2" fill="#00000022" />
<rect x="10" y="30" width="2" height="2" fill="#00000022" />
<rect x="20" y="30" width="2" height="2" fill="#00000022" />
<rect x="30" y="30" width="2" height="2" fill="#00000022" />
<rect x="10" y="4" width="12" height="4" fill="#32493a" />
<rect x="12" y="8" width="8" height="4" fill="#f1c48c" />
<rect x="10" y="12" width="12" height="8" fill="#497051" />
<rect x="20" y="12" width="6" height="4" fill="#32493a" />
<rect x="24" y="14" width="4" height="2" fill="#2e2416" />
<rect x="26" y="14" width="4" height="2" fill="#2f313b" />
<rect x="10" y="20" width="4" height="6" fill="#32493a" />
<rect x="18" y="20" width="4" height="6" fill="#32493a" />
<rect x="10" y="26" width="4" height="4" fill="#2f313b" />
<rect x="18" y="26" width="4" height="4" fill="#2f313b" />
<rect x="6" y="56" width="2" height="2" fill="#00000022" />
<rect x="16" y="56" width="2" height="2" fill="#00000022" />
<rect x="26" y="56" width="2" height="2" fill="#00000022" />
<rect x="4" y="58" width="2" height="2" fill="#00000022" />
<rect x="14" y="58" width="2" height="2" fill="#00000022" />
<rect x="24" y="58" width="2" height="2" fill="#00000022" />
<rect x="2" y="60" width="2" height="2" fill="#00000022" />
<rect x="12" y="60" width="2" height="2" fill="#00000022" />
<rect x="22" y="60" width="2" height="2" fill="#00000022" />
<rect x="0" y="62" width="2" height="2" fill="#00000022" />
<rect x="10" y="62" width="2" height="2" fill="#00000022" />
<rect x="20" y="62" width="2" height="2" fill="#00000022" />
<rect x="30" y="62" width="2" height="2" fill="#00000022" />
<rect x="8" y="38" width="12" height="4" fill="#563830" />
<rect x="10" y="42" width="8" height="4" fill="#f0c28d" />
<rect x="8" y="46" width="14" height="6" fill="#7d5448" />
<rect x="20" y="48" width="8" height="2" fill="#303448" />
<rect x="6" y="52" width="6" height="4" fill="#563830" />
<rect x="12" y="52" width="8" height="4" fill="#563830" />
<rect x="20" y="52" width="8" height="2" fill="#2f313b" />
<rect x="8" y="56" width="6" height="2" fill="#2f313b" />
<rect x="0" y="88" width="8" height="4" fill="#d8a364" />
<rect x="8" y="88" width="8" height="4" fill="#d8a364" />
<rect x="16" y="88" width="8" height="4" fill="#d8a364" />
<rect x="24" y="88" width="8" height="4" fill="#d8a364" />
<rect x="4" y="84" width="22" height="4" fill="#bf824f" />
<rect x="12" y="80" width="8" height="4" fill="#11213f" />
<rect x="12" y="84" width="8" height="4" fill="#f2c28d" />
<rect x="10" y="88" width="12" height="6" fill="#2c5ca8" />
<rect x="20" y="88" width="8" height="2" fill="#313446" />
<rect x="26" y="88" width="4" height="2" fill="#171717" />
<rect x="38" y="24" width="2" height="2" fill="#00000022" />
<rect x="48" y="24" width="2" height="2" fill="#00000022" />
<rect x="58" y="24" width="2" height="2" fill="#00000022" />
<rect x="36" y="26" width="2" height="2" fill="#00000022" />
<rect x="46" y="26" width="2" height="2" fill="#00000022" />
<rect x="56" y="26" width="2" height="2" fill="#00000022" />
<rect x="34" y="28" width="2" height="2" fill="#00000022" />
<rect x="44" y="28" width="2" height="2" fill="#00000022" />
<rect x="54" y="28" width="2" height="2" fill="#00000022" />
<rect x="32" y="30" width="2" height="2" fill="#00000022" />
<rect x="42" y="30" width="2" height="2" fill="#00000022" />
<rect x="52" y="30" width="2" height="2" fill="#00000022" />
<rect x="62" y="30" width="2" height="2" fill="#00000022" />
<rect x="42" y="4" width="12" height="4" fill="#32493a" />
<rect x="44" y="8" width="8" height="4" fill="#f1c48c" />
<rect x="42" y="12" width="12" height="8" fill="#497051" />
<rect x="52" y="12" width="6" height="4" fill="#32493a" />
<rect x="56" y="14" width="4" height="2" fill="#2e2416" />
<rect x="58" y="14" width="4" height="2" fill="#2f313b" />
<rect x="42" y="20" width="4" height="6" fill="#32493a" />
<rect x="50" y="20" width="4" height="6" fill="#32493a" />
<rect x="44" y="26" width="4" height="4" fill="#2f313b" />
<rect x="48" y="26" width="4" height="4" fill="#2f313b" />
<rect x="38" y="56" width="2" height="2" fill="#00000022" />
<rect x="48" y="56" width="2" height="2" fill="#00000022" />
<rect x="58" y="56" width="2" height="2" fill="#00000022" />
<rect x="36" y="58" width="2" height="2" fill="#00000022" />
<rect x="46" y="58" width="2" height="2" fill="#00000022" />
<rect x="56" y="58" width="2" height="2" fill="#00000022" />
<rect x="34" y="60" width="2" height="2" fill="#00000022" />
<rect x="44" y="60" width="2" height="2" fill="#00000022" />
<rect x="54" y="60" width="2" height="2" fill="#00000022" />
<rect x="32" y="62" width="2" height="2" fill="#00000022" />
<rect x="42" y="62" width="2" height="2" fill="#00000022" />
<rect x="52" y="62" width="2" height="2" fill="#00000022" />
<rect x="62" y="62" width="2" height="2" fill="#00000022" />
<rect x="40" y="38" width="12" height="4" fill="#563830" />
<rect x="42" y="42" width="8" height="4" fill="#f0c28d" />
<rect x="40" y="46" width="14" height="6" fill="#7d5448" />
<rect x="52" y="48" width="8" height="2" fill="#303448" />
<rect x="38" y="52" width="6" height="4" fill="#563830" />
<rect x="46" y="52" width="8" height="4" fill="#563830" />
<rect x="52" y="52" width="8" height="2" fill="#2f313b" />
<rect x="42" y="56" width="6" height="2" fill="#2f313b" />
<rect x="32" y="88" width="8" height="4" fill="#d8a364" />
<rect x="40" y="88" width="8" height="4" fill="#d8a364" />
<rect x="48" y="88" width="8" height="4" fill="#d8a364" />
<rect x="56" y="88" width="8" height="4" fill="#d8a364" />
<rect x="36" y="84" width="22" height="4" fill="#bf824f" />
<rect x="44" y="76" width="8" height="4" fill="#11213f" />
<rect x="44" y="80" width="8" height="4" fill="#f2c28d" />
<rect x="42" y="84" width="12" height="6" fill="#2c5ca8" />
<rect x="52" y="84" width="8" height="2" fill="#313446" />
<rect x="58" y="84" width="4" height="2" fill="#171717" />
<rect x="70" y="24" width="2" height="2" fill="#00000022" />
<rect x="80" y="24" width="2" height="2" fill="#00000022" />
<rect x="90" y="24" width="2" height="2" fill="#00000022" />
<rect x="68" y="26" width="2" height="2" fill="#00000022" />
<rect x="78" y="26" width="2" height="2" fill="#00000022" />
<rect x="88" y="26" width="2" height="2" fill="#00000022" />
<rect x="66" y="28" width="2" height="2" fill="#00000022" />
<rect x="76" y="28" width="2" height="2" fill="#00000022" />
<rect x="86" y="28" width="2" height="2" fill="#00000022" />
<rect x="64" y="30" width="2" height="2" fill="#00000022" />
<rect x="74" y="30" width="2" height="2" fill="#00000022" />
<rect x="84" y="30" width="2" height="2" fill="#00000022" />
<rect x="94" y="30" width="2" height="2" fill="#00000022" />
<rect x="74" y="4" width="12" height="4" fill="#32493a" />
<rect x="76" y="8" width="8" height="4" fill="#f1c48c" />
<rect x="74" y="12" width="12" height="8" fill="#497051" />
<rect x="84" y="12" width="6" height="4" fill="#32493a" />
<rect x="88" y="14" width="4" height="2" fill="#2e2416" />
<rect x="90" y="14" width="4" height="2" fill="#2f313b" />
<rect x="74" y="20" width="4" height="6" fill="#32493a" />
<rect x="82" y="20" width="4" height="6" fill="#32493a" />
<rect x="74" y="26" width="4" height="4" fill="#2f313b" />
<rect x="82" y="26" width="4" height="4" fill="#2f313b" />
<rect x="70" y="56" width="2" height="2" fill="#00000022" />
<rect x="80" y="56" width="2" height="2" fill="#00000022" />
<rect x="90" y="56" width="2" height="2" fill="#00000022" />
<rect x="68" y="58" width="2" height="2" fill="#00000022" />
<rect x="78" y="58" width="2" height="2" fill="#00000022" />
<rect x="88" y="58" width="2" height="2" fill="#00000022" />
<rect x="66" y="60" width="2" height="2" fill="#00000022" />
<rect x="76" y="60" width="2" height="2" fill="#00000022" />
<rect x="86" y="60" width="2" height="2" fill="#00000022" />
<rect x="64" y="62" width="2" height="2" fill="#00000022" />
<rect x="74" y="62" width="2" height="2" fill="#00000022" />
<rect x="84" y="62" width="2" height="2" fill="#00000022" />
<rect x="94" y="62" width="2" height="2" fill="#00000022" />
<rect x="72" y="38" width="12" height="4" fill="#563830" />
<rect x="74" y="42" width="8" height="4" fill="#f0c28d" />
<rect x="72" y="46" width="14" height="6" fill="#7d5448" />
<rect x="84" y="48" width="8" height="2" fill="#303448" />
<rect x="70" y="52" width="6" height="4" fill="#563830" />
<rect x="76" y="52" width="8" height="4" fill="#563830" />
<rect x="84" y="52" width="8" height="2" fill="#2f313b" />
<rect x="72" y="56" width="6" height="2" fill="#2f313b" />
<rect x="64" y="88" width="8" height="4" fill="#d8a364" />
<rect x="72" y="88" width="8" height="4" fill="#d8a364" />
<rect x="80" y="88" width="8" height="4" fill="#d8a364" />
<rect x="88" y="88" width="8" height="4" fill="#d8a364" />
<rect x="68" y="84" width="22" height="4" fill="#bf824f" />
<rect x="76" y="72" width="8" height="4" fill="#11213f" />
<rect x="76" y="76" width="8" height="4" fill="#f2c28d" />
<rect x="74" y="80" width="12" height="6" fill="#2c5ca8" />
<rect x="84" y="80" width="8" height="2" fill="#313446" />
<rect x="90" y="80" width="4" height="2" fill="#171717" />
<rect x="102" y="24" width="2" height="2" fill="#00000022" />
<rect x="112" y="24" width="2" height="2" fill="#00000022" />
<rect x="122" y="24" width="2" height="2" fill="#00000022" />
<rect x="100" y="26" width="2" height="2" fill="#00000022" />
<rect x="110" y="26" width="2" height="2" fill="#00000022" />
<rect x="120" y="26" width="2" height="2" fill="#00000022" />
<rect x="98" y="28" width="2" height="2" fill="#00000022" />
<rect x="108" y="28" width="2" height="2" fill="#00000022" />
<rect x="118" y="28" width="2" height="2" fill="#00000022" />
<rect x="96" y="30" width="2" height="2" fill="#00000022" />
<rect x="106" y="30" width="2" height="2" fill="#00000022" />
<rect x="116" y="30" width="2" height="2" fill="#00000022" />
<rect x="126" y="30" width="2" height="2" fill="#00000022" />
<rect x="106" y="4" width="12" height="4" fill="#32493a" />
<rect x="108" y="8" width="8" height="4" fill="#f1c48c" />
<rect x="106" y="12" width="12" height="8" fill="#497051" />
<rect x="116" y="12" width="6" height="4" fill="#32493a" />
<rect x="120" y="14" width="4" height="2" fill="#2e2416" />
<rect x="122" y="14" width="4" height="2" fill="#2f313b" />
<rect x="106" y="20" width="4" height="6" fill="#32493a" />
<rect x="114" y="20" width="4" height="6" fill="#32493a" />
<rect x="104" y="26" width="4" height="4" fill="#2f313b" />
<rect x="116" y="26" width="4" height="4" fill="#2f313b" />
<rect x="102" y="56" width="2" height="2" fill="#00000022" />
<rect x="112" y="56" width="2" height="2" fill="#00000022" />
<rect x="122" y="56" width="2" height="2" fill="#00000022" />
<rect x="100" y="58" width="2" height="2" fill="#00000022" />
<rect x="110" y="58" width="2" height="2" fill="#00000022" />
<rect x="120" y="58" width="2" height="2" fill="#00000022" />
<rect x="98" y="60" width="2" height="2" fill="#00000022" />
<rect x="108" y="60" width="2" height="2" fill="#00000022" />
<rect x="118" y="60" width="2" height="2" fill="#00000022" />
<rect x="96" y="62" width="2" height="2" fill="#00000022" />
<rect x="106" y="62" width="2" height="2" fill="#00000022" />
<rect x="116" y="62" width="2" height="2" fill="#00000022" />
<rect x="126" y="62" width="2" height="2" fill="#00000022" />
<rect x="104" y="38" width="12" height="4" fill="#563830" />
<rect x="106" y="42" width="8" height="4" fill="#f0c28d" />
<rect x="104" y="46" width="14" height="6" fill="#7d5448" />
<rect x="116" y="48" width="8" height="2" fill="#303448" />
<rect x="102" y="52" width="6" height="4" fill="#563830" />
<rect x="106" y="52" width="8" height="4" fill="#563830" />
<rect x="116" y="52" width="8" height="2" fill="#2f313b" />
<rect x="102" y="56" width="6" height="2" fill="#2f313b" />
<rect x="96" y="88" width="8" height="4" fill="#d8a364" />
<rect x="104" y="88" width="8" height="4" fill="#d8a364" />
<rect x="112" y="88" width="8" height="4" fill="#d8a364" />
<rect x="120" y="88" width="8" height="4" fill="#d8a364" />
<rect x="100" y="84" width="22" height="4" fill="#bf824f" />
<rect x="108" y="68" width="8" height="4" fill="#11213f" />
<rect x="108" y="72" width="8" height="4" fill="#f2c28d" />
<rect x="106" y="76" width="12" height="6" fill="#2c5ca8" />
<rect x="116" y="76" width="8" height="2" fill="#313446" />
<rect x="122" y="76" width="4" height="2" fill="#171717" />
<rect x="6" y="120" width="2" height="2" fill="#00000014" />
<rect x="16" y="120" width="2" height="2" fill="#00000014" />
<rect x="26" y="120" width="2" height="2" fill="#00000014" />
<rect x="4" y="122" width="2" height="2" fill="#00000014" />
<rect x="14" y="122" width="2" height="2" fill="#00000014" />
<rect x="24" y="122" width="2" height="2" fill="#00000014" />
<rect x="2" y="124" width="2" height="2" fill="#00000014" />
<rect x="12" y="124" width="2" height="2" fill="#00000014" />
<rect x="22" y="124" width="2" height="2" fill="#00000014" />
<rect x="0" y="126" width="2" height="2" fill="#00000014" />
<rect x="10" y="126" width="2" height="2" fill="#00000014" />
<rect x="20" y="126" width="2" height="2" fill="#00000014" />
<rect x="30" y="126" width="2" height="2" fill="#00000014" />
<rect x="10" y="106" width="12" height="12" fill="#5473c9" />
<rect x="12" y="102" width="8" height="4" fill="#79c9ff" />
<rect x="14" y="110" width="4" height="8" fill="#d7f0ff" />
<rect x="38" y="120" width="2" height="2" fill="#00000014" />
<rect x="48" y="120" width="2" height="2" fill="#00000014" />
<rect x="58" y="120" width="2" height="2" fill="#00000014" />
<rect x="36" y="122" width="2" height="2" fill="#00000014" />
<rect x="46" y="122" width="2" height="2" fill="#00000014" />
<rect x="56" y="122" width="2" height="2" fill="#00000014" />
<rect x="34" y="124" width="2" height="2" fill="#00000014" />
<rect x="44" y="124" width="2" height="2" fill="#00000014" />
<rect x="54" y="124" width="2" height="2" fill="#00000014" />
<rect x="32" y="126" width="2" height="2" fill="#00000014" />
<rect x="42" y="126" width="2" height="2" fill="#00000014" />
<rect x="52" y="126" width="2" height="2" fill="#00000014" />
<rect x="62" y="126" width="2" height="2" fill="#00000014" />
<rect x="42" y="106" width="12" height="12" fill="#f5dfb0" />
<rect x="46" y="104" width="4" height="16" fill="#ff6e52" />
<rect x="42" y="108" width="12" height="4" fill="#ff6e52" />
<rect x="70" y="120" width="2" height="2" fill="#00000014" />
<rect x="80" y="120" width="2" height="2" fill="#00000014" />
<rect x="90" y="120" width="2" height="2" fill="#00000014" />
<rect x="68" y="122" width="2" height="2" fill="#00000014" />
<rect x="78" y="122" width="2" height="2" fill="#00000014" />
<rect x="88" y="122" width="2" height="2" fill="#00000014" />
<rect x="66" y="124" width="2" height="2" fill="#00000014" />
<rect x="76" y="124" width="2" height="2" fill="#00000014" />
<rect x="86" y="124" width="2" height="2" fill="#00000014" />
<rect x="64" y="126" width="2" height="2" fill="#00000014" />
<rect x="74" y="126" width="2" height="2" fill="#00000014" />
<rect x="84" y="126" width="2" height="2" fill="#00000014" />
<rect x="94" y="126" width="2" height="2" fill="#00000014" />
<rect x="74" y="106" width="12" height="12" fill="#18393d" />
<rect x="78" y="102" width="4" height="20" fill="#77f0ad" />
<rect x="74" y="110" width="12" height="4" fill="#77f0ad" />
<rect x="102" y="120" width="2" height="2" fill="#00000014" />
<rect x="112" y="120" width="2" height="2" fill="#00000014" />
<rect x="122" y="120" width="2" height="2" fill="#00000014" />
<rect x="100" y="122" width="2" height="2" fill="#00000014" />
<rect x="110" y="122" width="2" height="2" fill="#00000014" />
<rect x="120" y="122" width="2" height="2" fill="#00000014" />
<rect x="98" y="124" width="2" height="2" fill="#00000014" />
<rect x="108" y="124" width="2" height="2" fill="#00000014" />
<rect x="118" y="124" width="2" height="2" fill="#00000014" />
<rect x="96" y="126" width="2" height="2" fill="#00000014" />
<rect x="106" y="126" width="2" height="2" fill="#00000014" />
<rect x="116" y="126" width="2" height="2" fill="#00000014" />
<rect x="126" y="126" width="2" height="2" fill="#00000014" />
<rect x="106" y="106" width="12" height="12" fill="#6a492f" />
<rect x="104" y="112" width="16" height="4" fill="#ffbf57" />
<rect x="108" y="104" width="8" height="4" fill="#ffe8a6" />
</svg>