<svg xmlns="http://www.w3.org/2000/svg" width="768" height="72" viewBox="0 0 768 72" shape-rendering="crispEdges">
  <defs>
    <g id="base">
      <rect x="21" y="8" width="6" height="6" fill="#f2cfb6"/>
      <rect x="18" y="11" width="12" height="6" fill="#2f2f3e"/>
      <rect x="15" y="17" width="18" height="9" fill="#f2cfb6"/>
      <rect x="18" y="20" width="3" height="3" fill="#161826"/>
      <rect x="27" y="20" width="3" height="3" fill="#161826"/>
      <rect x="18" y="26" width="12" height="3" fill="#cc4048"/>
      <rect x="15" y="29" width="18" height="15" fill="#5a7c6a"/>
      <rect x="12" y="29" width="3" height="12" fill="#5a7c6a"/>
      <rect x="33" y="29" width="3" height="12" fill="#5a7c6a"/>
      <rect x="18" y="44" width="6" height="15" fill="#283149"/>
      <rect x="24" y="44" width="6" height="15" fill="#1d243a"/>
      <rect x="18" y="59" width="6" height="6" fill="#f2cfb6"/>
      <rect x="24" y="59" width="6" height="6" fill="#f2cfb6"/>
      <rect x="12" y="11" width="3" height="3" fill="#d6485f"/>
      <rect x="33" y="11" width="3" height="3" fill="#d6485f"/>
    </g>
    <g id="cassette">
      <rect x="42" y="26" width="6" height="3" fill="#ffffff"/>
      <rect x="39" y="29" width="12" height="6" fill="#6ccff6"/>
      <rect x="42" y="32" width="3" height="3" fill="#ffffff"/>
    </g>
    <g id="vinyl">
      <rect x="42" y="26" width="6" height="3" fill="#f7f7f7"/>
      <rect x="39" y="29" width="12" height="12" fill="#111111"/>
      <rect x="42" y="32" width="6" height="6" fill="#ef476f"/>
    </g>
    <g id="spark">
      <rect x="42" y="14" width="3" height="3" fill="#ffd166"/>
      <rect x="45" y="11" width="3" height="3" fill="#ffd166"/>
      <rect x="45" y="17" width="3" height="3" fill="#ffd166"/>
      <rect x="48" y="14" width="3" height="3" fill="#ffd166"/>
    </g>
  </defs>

  <g transform="translate(0 0)">
    <use href="#base"/>
  </g>

  <g transform="translate(48 0)">
    <use href="#base"/>
    <rect x="18" y="47" width="6" height="12" fill="#283149"/>
    <rect x="24" y="44" width="6" height="15" fill="#1d243a"/>
    <rect x="15" y="35" width="3" height="6" fill="#f2cfb6"/>
  </g>

  <g transform="translate(96 0)">
    <use href="#base"/>
    <rect x="18" y="44" width="6" height="15" fill="#283149"/>
    <rect x="24" y="47" width="6" height="12" fill="#1d243a"/>
    <rect x="30" y="35" width="3" height="6" fill="#f2cfb6"/>
  </g>

  <g transform="translate(144 0)">
    <use href="#base"/>
    <rect x="36" y="29" width="12" height="6" fill="#f2cfb6"/>
    <rect x="45" y="26" width="3" height="6" fill="#d6485f"/>
  </g>

  <g transform="translate(192 0)">
    <use href="#base"/>
    <rect x="36" y="26" width="12" height="9" fill="#f2cfb6"/>
    <use href="#vinyl"/>
  </g>

  <g transform="translate(240 0)">
    <use href="#base"/>
    <rect x="15" y="17" width="18" height="9" fill="#f0a4ae"/>
    <rect x="12" y="32" width="3" height="9" fill="#f2cfb6"/>
  </g>

  <g transform="translate(288 0)">
    <use href="#base"/>
    <rect x="18" y="47" width="6" height="12" fill="#283149"/>
    <rect x="24" y="41" width="6" height="18" fill="#1d243a"/>
    <rect x="12" y="35" width="3" height="9" fill="#f2cfb6"/>
    <rect x="33" y="32" width="3" height="9" fill="#f2cfb6"/>
  </g>

  <g transform="translate(336 0)">
    <use href="#base"/>
    <rect x="33" y="26" width="12" height="6" fill="#f2cfb6"/>
    <use href="#cassette"/>
  </g>

  <g transform="translate(384 0)">
    <use href="#base"/>
    <rect x="36" y="20" width="9" height="6" fill="#f2cfb6"/>
    <rect x="39" y="26" width="12" height="6" fill="#6ccff6"/>
    <rect x="42" y="23" width="6" height="3" fill="#ffffff"/>
    <use href="#spark"/>
  </g>

  <g transform="translate(432 0)">
    <use href="#base"/>
    <rect x="36" y="23" width="12" height="9" fill="#f2cfb6"/>
    <rect x="45" y="20" width="9" height="12" fill="#6ccff6"/>
    <rect x="48" y="23" width="3" height="3" fill="#ffffff"/>
    <rect x="48" y="29" width="3" height="3" fill="#ffffff"/>
    <use href="#spark"/>
    <rect x="54" y="26" width="3" height="3" fill="#ffd166"/>
  </g>

  <g transform="translate(480 0)">
    <use href="#base"/>
    <rect x="30" y="26" width="9" height="6" fill="#f2cfb6"/>
    <rect x="36" y="23" width="12" height="12" fill="#6ccff6"/>
    <rect x="39" y="26" width="6" height="3" fill="#ffffff"/>
    <rect x="39" y="32" width="6" height="3" fill="#ffffff"/>
    <rect x="12" y="32" width="3" height="9" fill="#f2cfb6"/>
    <use href="#spark"/>
  </g>

  <g transform="translate(528 0)">
    <use href="#base"/>
    <rect x="12" y="23" width="3" height="15" fill="#f2cfb6"/>
    <rect x="15" y="23" width="12" height="3" fill="#f2cfb6"/>
    <rect x="18" y="26" width="12" height="3" fill="#89dceb"/>
  </g>

  <g transform="translate(576 0)">
    <use href="#base"/>
    <rect x="15" y="32" width="18" height="6" fill="#7c5c48"/>
    <rect x="18" y="35" width="12" height="3" fill="#f2cfb6"/>
  </g>

  <g transform="translate(624 0)">
    <use href="#base"/>
    <rect x="33" y="17" width="12" height="6" fill="#f2cfb6"/>
    <rect x="39" y="23" width="9" height="9" fill="#ffffff"/>
    <rect x="42" y="26" width="3" height="3" fill="#ef476f"/>
    <use href="#spark"/>
  </g>

  <g transform="translate(672 0)">
    <use href="#base"/>
    <rect x="12" y="17" width="6" height="3" fill="#ffd166"/>
    <rect x="33" y="17" width="6" height="3" fill="#ffd166"/>
    <rect x="18" y="5" width="12" height="3" fill="#ffd166"/>
    <rect x="18" y="44" width="6" height="12" fill="#283149"/>
    <rect x="24" y="44" width="6" height="12" fill="#1d243a"/>
  </g>

  <g transform="translate(720 0)">
    <use href="#base"/>
    <rect x="15" y="47" width="18" height="6" fill="#283149"/>
    <rect x="12" y="53" width="24" height="6" fill="#1d243a"/>
    <rect x="18" y="59" width="12" height="3" fill="#f2cfb6"/>
  </g>
</svg>
