<svg xmlns="http://www.w3.org/2000/svg" width="336" height="72" viewBox="0 0 336 72" shape-rendering="crispEdges">
  <defs>
    <g id="body">
      <rect x="21" y="8" width="6" height="6" fill="#d3b190"/>
      <rect x="18" y="11" width="12" height="6" fill="#151820"/>
      <rect x="15" y="17" width="18" height="9" fill="#d3b190"/>
      <rect x="18" y="20" width="12" height="3" fill="#0c0f16"/>
      <rect x="18" y="26" width="12" height="3" fill="#414868"/>
      <rect x="15" y="29" width="18" height="15" fill="#3d567c"/>
      <rect x="12" y="29" width="3" height="12" fill="#d3b190"/>
      <rect x="33" y="29" width="3" height="12" fill="#d3b190"/>
      <rect x="18" y="44" width="6" height="15" fill="#2f313a"/>
      <rect x="24" y="44" width="6" height="15" fill="#1f232e"/>
      <rect x="18" y="59" width="6" height="6" fill="#f8f8f8"/>
      <rect x="24" y="59" width="6" height="6" fill="#f8f8f8"/>
      <rect x="15" y="29" width="18" height="3" fill="#5ec0a5"/>
    </g>
  </defs>

  <g transform="translate(0 0)">
    <use href="#body"/>
  </g>
  <g transform="translate(48 0)">
    <use href="#body"/>
    <rect x="12" y="35" width="3" height="3" fill="#ffffff"/>
    <rect x="33" y="35" width="3" height="3" fill="#ffffff"/>
  </g>
  <g transform="translate(96 0)">
    <use href="#body"/>
    <rect x="36" y="32" width="15" height="3" fill="#d3b190"/>
    <rect x="48" y="29" width="6" height="6" fill="#ff8c42"/>
  </g>
  <g transform="translate(144 0)">
    <use href="#body"/>
    <rect x="39" y="38" width="15" height="3" fill="#d3b190"/>
    <rect x="42" y="35" width="12" height="6" fill="#66c7ff"/>
  </g>
  <g transform="translate(192 0)">
    <use href="#body"/>
    <rect x="15" y="17" width="18" height="9" fill="#d98d7e"/>
    <rect x="33" y="32" width="3" height="6" fill="#ffd5c7"/>
  </g>
  <g transform="translate(240 0)">
    <use href="#body"/>
    <rect x="18" y="47" width="6" height="12" fill="#2f313a"/>
    <rect x="24" y="47" width="6" height="12" fill="#1f232e"/>
    <rect x="12" y="35" width="3" height="12" fill="#d3b190"/>
    <rect x="33" y="35" width="3" height="9" fill="#d3b190"/>
  </g>
  <g transform="translate(288 0)">
    <use href="#body"/>
    <rect x="33" y="29" width="12" height="6" fill="#d3b190"/>
    <rect x="42" y="26" width="6" height="3" fill="#ffffff"/>
    <rect x="42" y="29" width="6" height="6" fill="#ff8c42"/>
  </g>
</svg>
