<svg xmlns="http://www.w3.org/2000/svg" width="336" height="72" viewBox="0 0 336 72" shape-rendering="crispEdges">
  <defs>
    <g id="body">
      <rect x="21" y="8" width="6" height="6" fill="#f0c3a0"/>
      <rect x="18" y="11" width="12" height="6" fill="#5a3b7a"/>
      <rect x="15" y="17" width="18" height="9" fill="#f0c3a0"/>
      <rect x="18" y="20" width="12" height="3" fill="#25192f"/>
      <rect x="18" y="26" width="12" height="3" fill="#2fd0c9"/>
      <rect x="15" y="29" width="18" height="15" fill="#7f5d99"/>
      <rect x="12" y="29" width="3" height="12" fill="#f0c3a0"/>
      <rect x="33" y="29" width="3" height="12" fill="#f0c3a0"/>
      <rect x="18" y="44" width="6" height="15" fill="#27364f"/>
      <rect x="24" y="44" width="6" height="15" fill="#1e2a40"/>
      <rect x="18" y="59" width="6" height="6" fill="#f7f8fd"/>
      <rect x="24" y="59" width="6" height="6" fill="#f7f8fd"/>
      <rect x="12" y="14" width="3" height="3" fill="#ff6fa5"/>
      <rect x="33" y="14" width="3" height="3" fill="#ff6fa5"/>
    </g>
  </defs>

  <g transform="translate(0 0)">
    <use href="#body"/>
  </g>
  <g transform="translate(48 0)">
    <use href="#body"/>
    <rect x="12" y="35" width="3" height="3" fill="#9afff8"/>
    <rect x="33" y="35" width="3" height="3" fill="#9afff8"/>
  </g>
  <g transform="translate(96 0)">
    <use href="#body"/>
    <rect x="36" y="29" width="15" height="6" fill="#f0c3a0"/>
    <rect x="48" y="26" width="6" height="6" fill="#ff6fa5"/>
  </g>
  <g transform="translate(144 0)">
    <use href="#body"/>
    <rect x="39" y="38" width="15" height="3" fill="#f0c3a0"/>
    <rect x="42" y="35" width="12" height="6" fill="#9afff8"/>
  </g>
  <g transform="translate(192 0)">
    <use href="#body"/>
    <rect x="15" y="17" width="18" height="9" fill="#f3a3ae"/>
    <rect x="12" y="32" width="3" height="6" fill="#ffd4e0"/>
  </g>
  <g transform="translate(240 0)">
    <use href="#body"/>
    <rect x="18" y="47" width="6" height="12" fill="#27364f"/>
    <rect x="24" y="47" width="6" height="12" fill="#1e2a40"/>
    <rect x="12" y="35" width="3" height="12" fill="#f0c3a0"/>
    <rect x="33" y="35" width="3" height="9" fill="#f0c3a0"/>
  </g>
  <g transform="translate(288 0)">
    <use href="#body"/>
    <rect x="33" y="29" width="12" height="6" fill="#f0c3a0"/>
    <rect x="42" y="26" width="6" height="3" fill="#ffffff"/>
    <rect x="42" y="29" width="6" height="6" fill="#2fd0c9"/>
  </g>
</svg>
