<svg xmlns="http://www.w3.org/2000/svg" width="336" height="72" viewBox="0 0 336 72" shape-rendering="crispEdges">
  <defs>
    <g id="body">
      <rect x="21" y="8" width="6" height="6" fill="#ffd7bf"/>
      <rect x="18" y="11" width="12" height="6" fill="#d0625f"/>
      <rect x="15" y="17" width="18" height="9" fill="#ffd7bf"/>
      <rect x="18" y="20" width="12" height="3" fill="#2d1f34"/>
      <rect x="18" y="26" width="12" height="3" fill="#f0e6c8"/>
      <rect x="15" y="29" width="18" height="15" fill="#d8b45a"/>
      <rect x="12" y="29" width="3" height="12" fill="#ffd7bf"/>
      <rect x="33" y="29" width="3" height="12" fill="#ffd7bf"/>
      <rect x="18" y="44" width="6" height="15" fill="#8c4c2e"/>
      <rect x="24" y="44" width="6" height="15" fill="#7a4126"/>
      <rect x="18" y="59" width="6" height="6" fill="#3d2220"/>
      <rect x="24" y="59" width="6" height="6" fill="#3d2220"/>
      <rect x="12" y="32" width="3" height="6" fill="#e34f87"/>
      <rect x="33" y="32" width="3" height="6" fill="#e34f87"/>
    </g>
  </defs>

  <g transform="translate(0 0)">
    <use href="#body"/>
  </g>
  <g transform="translate(48 0)">
    <use href="#body"/>
    <rect x="12" y="35" width="3" height="3" fill="#fff7ef"/>
    <rect x="33" y="35" width="3" height="3" fill="#fff7ef"/>
  </g>
  <g transform="translate(96 0)">
    <use href="#body"/>
    <rect x="36" y="29" width="15" height="6" fill="#ffd7bf"/>
    <rect x="48" y="26" width="6" height="6" fill="#f0e6c8"/>
  </g>
  <g transform="translate(144 0)">
    <use href="#body"/>
    <rect x="39" y="38" width="15" height="3" fill="#ffd7bf"/>
    <rect x="42" y="35" width="12" height="6" fill="#ff6f61"/>
  </g>
  <g transform="translate(192 0)">
    <use href="#body"/>
    <rect x="15" y="17" width="18" height="9" fill="#f7a3b8"/>
    <rect x="12" y="29" width="3" height="9" fill="#ffb3ca"/>
  </g>
  <g transform="translate(240 0)">
    <use href="#body"/>
    <rect x="18" y="47" width="6" height="12" fill="#8c4c2e"/>
    <rect x="24" y="47" width="6" height="12" fill="#7a4126"/>
    <rect x="12" y="35" width="3" height="12" fill="#ffd7bf"/>
    <rect x="33" y="35" width="3" height="9" fill="#ffd7bf"/>
  </g>
  <g transform="translate(288 0)">
    <use href="#body"/>
    <rect x="33" y="26" width="15" height="6" fill="#ffd7bf"/>
    <rect x="45" y="23" width="6" height="6" fill="#f3e36a"/>
    <rect x="45" y="29" width="6" height="6" fill="#ffffff"/>
  </g>
</svg>
