<svg xmlns="http://www.w3.org/2000/svg" width="1024" height="96" viewBox="0 0 1024 96" shape-rendering="crispEdges">
  <defs>
    <g id="base">
      <rect x="20" y="8" width="24" height="8" fill="#11151d"/>
      <rect x="16" y="16" width="32" height="8" fill="#1a1f2a"/>
      <rect x="20" y="24" width="24" height="12" fill="#d3b190"/>
      <rect x="24" y="28" width="4" height="4" fill="#0c0f16"/>
      <rect x="36" y="28" width="4" height="4" fill="#0c0f16"/>
      <rect x="20" y="36" width="24" height="8" fill="#4d5a7a"/>
      <rect x="16" y="44" width="32" height="20" fill="#3d567c"/>
      <rect x="20" y="48" width="24" height="4" fill="#5ec0a5"/>
      <rect x="12" y="44" width="8" height="20" fill="#d3b190"/>
      <rect x="44" y="44" width="8" height="20" fill="#d3b190"/>
      <rect x="16" y="64" width="16" height="20" fill="#2f313a"/>
      <rect x="32" y="64" width="16" height="20" fill="#1f232e"/>
      <rect x="16" y="84" width="16" height="8" fill="#f8f8f8"/>
      <rect x="32" y="84" width="16" height="8" fill="#f8f8f8"/>
      <rect x="24" y="36" width="16" height="4" fill="#c7d2e8"/>
    </g>
    <g id="phone">
      <rect x="44" y="28" width="8" height="4" fill="#ffffff"/>
      <rect x="40" y="32" width="16" height="16" fill="#ff8c42"/>
      <rect x="44" y="36" width="8" height="8" fill="#23181d"/>
    </g>
    <g id="spark">
      <rect x="52" y="16" width="4" height="4" fill="#66c7ff"/>
      <rect x="56" y="12" width="4" height="4" fill="#66c7ff"/>
      <rect x="56" y="20" width="4" height="4" fill="#66c7ff"/>
      <rect x="60" y="16" width="4" height="4" fill="#66c7ff"/>
    </g>
  </defs>

  <g transform="translate(0 0)"><use href="#base"/></g>
  <g transform="translate(64 0)"><use href="#base"/><rect x="16" y="68" width="16" height="16" fill="#373943"/><rect x="32" y="64" width="16" height="20" fill="#1f232e"/><rect x="12" y="48" width="8" height="12" fill="#d3b190"/></g>
  <g transform="translate(128 0)"><use href="#base"/><rect x="16" y="64" width="16" height="20" fill="#2f313a"/><rect x="32" y="68" width="16" height="16" fill="#373943"/><rect x="44" y="48" width="8" height="12" fill="#d3b190"/></g>
  <g transform="translate(192 0)"><use href="#base"/><rect x="48" y="44" width="12" height="8" fill="#d3b190"/><rect x="56" y="40" width="8" height="8" fill="#ff8c42"/></g>
  <g transform="translate(256 0)"><use href="#base"/><rect x="44" y="52" width="16" height="8" fill="#d3b190"/><rect x="52" y="44" width="12" height="8" fill="#ff8c42"/></g>
  <g transform="translate(320 0)"><use href="#base"/><rect x="20" y="24" width="24" height="12" fill="#d98d7e"/><rect x="44" y="48" width="8" height="12" fill="#ffd5c7"/></g>
  <g transform="translate(384 0)"><use href="#base"/><rect x="12" y="48" width="8" height="16" fill="#d3b190"/><rect x="44" y="44" width="8" height="16" fill="#d3b190"/><rect x="16" y="68" width="16" height="16" fill="#373943"/></g>
  <g transform="translate(448 0)"><use href="#base"/><use href="#phone"/></g>
  <g transform="translate(512 0)"><use href="#base"/><rect x="44" y="20" width="12" height="8" fill="#d3b190"/><use href="#phone"/><use href="#spark"/></g>
  <g transform="translate(576 0)"><use href="#base"/><rect x="44" y="16" width="16" height="12" fill="#d3b190"/><rect x="48" y="28" width="16" height="20" fill="#ff8c42"/><rect x="52" y="32" width="8" height="8" fill="#23181d"/><use href="#spark"/></g>
  <g transform="translate(640 0)"><use href="#base"/><rect x="36" y="24" width="12" height="8" fill="#d3b190"/><rect x="44" y="28" width="20" height="20" fill="#ff8c42"/><rect x="48" y="32" width="8" height="8" fill="#ffffff"/><use href="#spark"/></g>
  <g transform="translate(704 0)"><use href="#base"/><rect x="12" y="28" width="8" height="20" fill="#d3b190"/><rect x="20" y="28" width="20" height="4" fill="#d3b190"/><rect x="24" y="32" width="16" height="4" fill="#5ec0a5"/></g>
  <g transform="translate(768 0)"><use href="#base"/><rect x="20" y="56" width="24" height="8" fill="#47536e"/><rect x="24" y="60" width="16" height="8" fill="#d3b190"/></g>
  <g transform="translate(832 0)"><use href="#base"/><rect x="44" y="20" width="12" height="8" fill="#d3b190"/><rect x="48" y="28" width="12" height="16" fill="#ffffff"/><rect x="52" y="32" width="4" height="4" fill="#ff8c42"/><use href="#spark"/></g>
  <g transform="translate(896 0)"><use href="#base"/><rect x="12" y="20" width="8" height="4" fill="#66c7ff"/><rect x="44" y="20" width="8" height="4" fill="#66c7ff"/><rect x="20" y="4" width="24" height="4" fill="#66c7ff"/></g>
  <g transform="translate(960 0)"><use href="#base"/><rect x="12" y="72" width="40" height="8" fill="#2f313a"/><rect x="16" y="80" width="32" height="8" fill="#1f232e"/><rect x="24" y="84" width="16" height="4" fill="#d3b190"/></g>
</svg>
