<svg xmlns="http://www.w3.org/2000/svg" width="1024" height="96" viewBox="0 0 1024 96" shape-rendering="crispEdges">
  <defs>
    <g id="base">
      <rect x="20" y="8" width="24" height="8" fill="#5a3b7a"/>
      <rect x="16" y="16" width="32" height="8" fill="#714c90"/>
      <rect x="20" y="24" width="24" height="12" fill="#f0c3a0"/>
      <rect x="24" y="28" width="4" height="4" fill="#25192f"/>
      <rect x="36" y="28" width="4" height="4" fill="#25192f"/>
      <rect x="20" y="36" width="24" height="8" fill="#2fd0c9"/>
      <rect x="16" y="44" width="32" height="20" fill="#7f5d99"/>
      <rect x="20" y="48" width="24" height="4" fill="#a88fbd"/>
      <rect x="12" y="44" width="8" height="20" fill="#f0c3a0"/>
      <rect x="44" y="44" width="8" height="20" fill="#f0c3a0"/>
      <rect x="16" y="64" width="16" height="20" fill="#27364f"/>
      <rect x="32" y="64" width="16" height="20" fill="#1e2a40"/>
      <rect x="16" y="84" width="16" height="8" fill="#f7f8fd"/>
      <rect x="32" y="84" width="16" height="8" fill="#f7f8fd"/>
      <rect x="12" y="16" width="8" height="4" fill="#ff6fa5"/>
      <rect x="44" y="16" width="8" height="4" fill="#ff6fa5"/>
    </g>
    <g id="banner">
      <rect x="44" y="20" width="4" height="28" fill="#f7f8fd"/>
      <rect x="48" y="20" width="16" height="12" fill="#2fd0c9"/>
      <rect x="52" y="24" width="8" height="4" fill="#ffffff"/>
    </g>
    <g id="spark">
      <rect x="52" y="12" width="4" height="4" fill="#9afff8"/>
      <rect x="56" y="8" width="4" height="4" fill="#9afff8"/>
      <rect x="56" y="16" width="4" height="4" fill="#9afff8"/>
      <rect x="60" y="12" width="4" height="4" fill="#9afff8"/>
    </g>
  </defs>

  <g transform="translate(0 0)"><use href="#base"/></g>
  <g transform="translate(64 0)"><use href="#base"/><rect x="16" y="68" width="16" height="16" fill="#31435f"/><rect x="32" y="64" width="16" height="20" fill="#1e2a40"/><rect x="12" y="48" width="8" height="12" fill="#f0c3a0"/></g>
  <g transform="translate(128 0)"><use href="#base"/><rect x="16" y="64" width="16" height="20" fill="#27364f"/><rect x="32" y="68" width="16" height="16" fill="#31435f"/><rect x="44" y="48" width="8" height="12" fill="#f0c3a0"/></g>
  <g transform="translate(192 0)"><use href="#base"/><rect x="48" y="44" width="12" height="8" fill="#f0c3a0"/><rect x="56" y="40" width="8" height="8" fill="#ff6fa5"/></g>
  <g transform="translate(256 0)"><use href="#base"/><rect x="44" y="52" width="16" height="8" fill="#f0c3a0"/><rect x="52" y="44" width="12" height="8" fill="#9afff8"/></g>
  <g transform="translate(320 0)"><use href="#base"/><rect x="20" y="24" width="24" height="12" fill="#f3a3ae"/><rect x="12" y="48" width="8" height="12" fill="#ffd4e0"/></g>
  <g transform="translate(384 0)"><use href="#base"/><rect x="12" y="48" width="8" height="16" fill="#f0c3a0"/><rect x="44" y="44" width="8" height="16" fill="#f0c3a0"/><rect x="16" y="68" width="16" height="16" fill="#31435f"/></g>
  <g transform="translate(448 0)"><use href="#base"/><use href="#banner"/></g>
  <g transform="translate(512 0)"><use href="#base"/><rect x="44" y="20" width="12" height="8" fill="#f0c3a0"/><use href="#banner"/><use href="#spark"/></g>
  <g transform="translate(576 0)"><use href="#base"/><rect x="44" y="16" width="16" height="12" fill="#f0c3a0"/><rect x="48" y="20" width="20" height="16" fill="#2fd0c9"/><rect x="52" y="24" width="8" height="4" fill="#ffffff"/><use href="#spark"/></g>
  <g transform="translate(640 0)"><use href="#base"/><rect x="36" y="24" width="12" height="8" fill="#f0c3a0"/><rect x="44" y="20" width="24" height="20" fill="#2fd0c9"/><rect x="48" y="24" width="8" height="4" fill="#ffffff"/><use href="#spark"/></g>
  <g transform="translate(704 0)"><use href="#base"/><rect x="12" y="28" width="8" height="20" fill="#f0c3a0"/><rect x="20" y="28" width="20" height="4" fill="#f0c3a0"/><rect x="24" y="32" width="16" height="4" fill="#2fd0c9"/></g>
  <g transform="translate(768 0)"><use href="#base"/><rect x="20" y="56" width="24" height="8" fill="#435675"/><rect x="24" y="60" width="16" height="8" fill="#f0c3a0"/></g>
  <g transform="translate(832 0)"><use href="#base"/><rect x="44" y="20" width="12" height="8" fill="#f0c3a0"/><rect x="48" y="28" width="12" height="12" fill="#ffffff"/><rect x="52" y="32" width="4" height="4" fill="#2fd0c9"/><use href="#spark"/></g>
  <g transform="translate(896 0)"><use href="#base"/><rect x="12" y="20" width="8" height="4" fill="#9afff8"/><rect x="44" y="20" width="8" height="4" fill="#9afff8"/><rect x="20" y="4" width="24" height="4" fill="#9afff8"/></g>
  <g transform="translate(960 0)"><use href="#base"/><rect x="12" y="72" width="40" height="8" fill="#27364f"/><rect x="16" y="80" width="32" height="8" fill="#1e2a40"/><rect x="24" y="84" width="16" height="4" fill="#f0c3a0"/></g>
</svg>
