<svg xmlns="http://www.w3.org/2000/svg" width="1024" height="96" viewBox="0 0 1024 96" shape-rendering="crispEdges">
  <defs>
    <g id="base">
      <rect x="24" y="8" width="16" height="8" fill="#b85a54"/>
      <rect x="20" y="16" width="24" height="8" fill="#d06b61"/>
      <rect x="20" y="24" width="24" height="12" fill="#ffd7bf"/>
      <rect x="24" y="28" width="4" height="4" fill="#2d1f34"/>
      <rect x="36" y="28" width="4" height="4" fill="#2d1f34"/>
      <rect x="20" y="36" width="24" height="8" fill="#f6ead5"/>
      <rect x="16" y="44" width="32" height="20" fill="#d8b45a"/>
      <rect x="20" y="48" width="24" height="8" fill="#eddcb3"/>
      <rect x="12" y="44" width="8" height="20" fill="#ffd7bf"/>
      <rect x="44" y="44" width="8" height="20" fill="#ffd7bf"/>
      <rect x="16" y="64" width="16" height="20" fill="#b87f3b"/>
      <rect x="32" y="64" width="16" height="20" fill="#a26d31"/>
      <rect x="16" y="84" width="16" height="8" fill="#4e2d28"/>
      <rect x="32" y="84" width="16" height="8" fill="#4e2d28"/>
      <rect x="8" y="52" width="4" height="12" fill="#ff6f61"/>
      <rect x="52" y="52" width="4" height="12" fill="#ff6f61"/>
    </g>
    <g id="mirror-lace">
      <rect x="20" y="44" width="4" height="20" fill="#f6ead5"/>
      <rect x="40" y="44" width="4" height="20" fill="#f6ead5"/>
      <rect x="24" y="52" width="16" height="4" fill="#f6ead5"/>
    </g>
    <g id="fan">
      <rect x="48" y="28" width="8" height="4" fill="#ffffff"/>
      <rect x="44" y="32" width="16" height="12" fill="#f0e6c8"/>
      <rect x="48" y="36" width="8" height="4" fill="#ff6f61"/>
    </g>
    <g id="spark">
      <rect x="52" y="16" width="4" height="4" fill="#f3e36a"/>
      <rect x="56" y="12" width="4" height="4" fill="#f3e36a"/>
      <rect x="56" y="20" width="4" height="4" fill="#f3e36a"/>
      <rect x="60" y="16" width="4" height="4" fill="#f3e36a"/>
    </g>
  </defs>

  <g transform="translate(0 0)"><use href="#base"/><use href="#mirror-lace"/></g>
  <g transform="translate(64 0)"><use href="#base"/><use href="#mirror-lace"/><rect x="16" y="68" width="16" height="16" fill="#c88e45"/><rect x="32" y="64" width="16" height="20" fill="#9f692f"/></g>
  <g transform="translate(128 0)"><use href="#base"/><use href="#mirror-lace"/><rect x="16" y="64" width="16" height="20" fill="#a26d31"/><rect x="32" y="68" width="16" height="16" fill="#c88e45"/></g>
  <g transform="translate(192 0)"><use href="#base"/><use href="#mirror-lace"/><rect x="48" y="44" width="12" height="8" fill="#ffd7bf"/><rect x="56" y="40" width="8" height="8" fill="#ff6f61"/></g>
  <g transform="translate(256 0)"><use href="#base"/><use href="#mirror-lace"/><rect x="44" y="52" width="16" height="8" fill="#ffd7bf"/><rect x="52" y="44" width="12" height="8" fill="#f0e6c8"/></g>
  <g transform="translate(320 0)"><use href="#base"/><rect x="20" y="24" width="24" height="12" fill="#f5a6bd"/><rect x="12" y="48" width="8" height="12" fill="#ffd7bf"/></g>
  <g transform="translate(384 0)"><use href="#base"/><rect x="12" y="52" width="8" height="16" fill="#ffd7bf"/><rect x="44" y="48" width="8" height="12" fill="#ffd7bf"/><rect x="16" y="68" width="16" height="16" fill="#c88e45"/></g>
  <g transform="translate(448 0)"><use href="#base"/><use href="#fan"/></g>
  <g transform="translate(512 0)"><use href="#base"/><rect x="44" y="20" width="12" height="8" fill="#ffd7bf"/><use href="#fan"/><use href="#spark"/></g>
  <g transform="translate(576 0)"><use href="#base"/><rect x="44" y="16" width="16" height="12" fill="#ffd7bf"/><rect x="48" y="28" width="16" height="16" fill="#f0e6c8"/><rect x="52" y="32" width="8" height="4" fill="#ff6f61"/><use href="#spark"/></g>
  <g transform="translate(640 0)"><use href="#base"/><rect x="36" y="24" width="12" height="8" fill="#ffd7bf"/><rect x="44" y="28" width="20" height="16" fill="#f0e6c8"/><rect x="48" y="32" width="8" height="4" fill="#ffffff"/><use href="#spark"/></g>
  <g transform="translate(704 0)"><use href="#base"/><rect x="12" y="28" width="8" height="20" fill="#ffd7bf"/><rect x="20" y="28" width="20" height="4" fill="#ffd7bf"/><rect x="24" y="32" width="16" height="4" fill="#f0e6c8"/></g>
  <g transform="translate(768 0)"><use href="#base"/><rect x="20" y="56" width="24" height="8" fill="#9a5b34"/><rect x="24" y="60" width="16" height="8" fill="#ffd7bf"/></g>
  <g transform="translate(832 0)"><use href="#base"/><rect x="44" y="20" width="12" height="8" fill="#ffd7bf"/><rect x="48" y="28" width="12" height="12" fill="#ffffff"/><rect x="52" y="32" width="4" height="4" fill="#f3e36a"/><use href="#spark"/></g>
  <g transform="translate(896 0)"><use href="#base"/><rect x="12" y="20" width="8" height="4" fill="#f3e36a"/><rect x="44" y="20" width="8" height="4" fill="#f3e36a"/><rect x="20" y="4" width="24" height="4" fill="#f3e36a"/></g>
  <g transform="translate(960 0)"><use href="#base"/><rect x="12" y="72" width="40" height="8" fill="#a26d31"/><rect x="16" y="80" width="32" height="8" fill="#7b4b21"/><rect x="24" y="84" width="16" height="4" fill="#ffd7bf"/></g>
</svg>
